<svg version="1.1" id="Layer_1" xmlns="http://www.w3.org/2000/svg" xmlns:xlink="http://www.w3.org/1999/xlink" x="0px" y="0px"
	 width="100%" viewBox="0 0 401 394" enable-background="new 0 0 401 394" xml:space="preserve">
<path fill="#03A6E0" opacity="1.000000" stroke="none" 
	d="
M198.144897,28.078232 
	C236.017914,24.565113 272.059845,29.311152 306.083038,46.057407 
	C319.000122,52.415195 330.899780,60.313656 341.903717,69.608521 
	C344.320160,71.649651 344.794769,72.910767 342.278473,75.391670 
	C326.737823,90.713776 311.279663,106.122299 296.000244,121.704247 
	C293.077545,124.684853 291.736572,122.959015 289.636383,121.081795 
	C252.371277,87.773422 198.553482,85.449371 159.067352,115.389832 
	C99.718925,160.390930 107.468338,252.389282 173.510284,286.851624 
	C211.816391,306.840698 257.387451,300.968842 289.682404,271.695007 
	C292.423828,269.210052 293.895355,269.188690 296.470459,271.803162 
	C311.431519,286.993042 326.488647,302.090912 341.705658,317.023895 
	C344.646179,319.909546 344.360626,321.400665 341.363647,323.897705 
	C311.735199,348.583649 277.574677,361.963867 239.289780,365.173157 
	C204.984543,368.048798 171.673477,364.090515 140.313614,349.249573 
	C86.323723,323.699158 53.817268,281.225128 45.095905,222.203629 
	C36.487003,163.943207 53.435520,113.303978 96.581062,72.595558 
	C123.074799,47.598335 155.308563,33.998356 191.252914,28.978104 
	C193.396530,28.678711 195.543243,28.401571 198.144897,28.078232 
z"/>
<path fill="#E80B2B" opacity="1.000000" stroke="none" 
	d="
M211.492584,203.993469 
	C201.895020,210.589218 192.440536,216.816879 183.123657,223.243988 
	C180.913803,224.768463 179.222931,225.127975 176.870529,223.590744 
	C169.759109,218.943771 162.571442,214.407288 155.305496,210.006012 
	C152.429733,208.263992 153.041367,207.235138 155.611191,206.202484 
	C171.965912,199.630539 167.949677,199.352554 166.249481,184.325516 
	C164.976990,173.078476 163.399689,161.864761 161.855759,150.650299 
	C161.393066,147.289566 162.182861,146.580795 165.529449,147.779953 
	C173.225510,150.537613 173.283600,150.379227 177.117401,143.135956 
	C179.844147,137.984253 182.623093,132.859039 185.265808,127.664551 
	C186.383499,125.467621 187.329041,125.445572 188.683197,127.412621 
	C191.516266,131.527908 194.367905,135.632095 197.297791,139.678650 
	C201.188629,145.052399 201.881577,145.190262 208.000992,142.348007 
	C214.362473,139.393341 214.288803,139.391312 214.095352,146.439926 
	C213.921799,152.763046 213.881912,159.091446 213.902054,165.417130 
	C213.907043,166.986786 213.542862,169.140640 215.584457,169.674652 
	C217.582443,170.197281 218.400360,168.203873 219.241058,166.852417 
	C225.575928,156.669189 231.838745,146.441177 238.143188,136.238953 
	C239.436981,134.145248 240.811111,132.101151 242.701569,129.178802 
	C244.102615,134.581955 245.311600,139.004608 246.386063,143.459702 
	C247.343124,147.428009 249.328140,148.523743 253.284225,146.898209 
	C260.827972,143.798492 268.508972,141.029953 276.162903,138.204895 
	C277.174652,137.831451 278.310059,136.709610 279.381653,137.610458 
	C280.515350,138.563492 279.485535,139.787186 279.188477,140.839249 
	C276.927490,148.847549 274.712860,156.870956 272.288971,164.830322 
	C271.191040,168.435593 271.988586,170.453796 275.873901,171.258392 
	C280.542358,172.225189 285.144135,173.514038 290.905701,174.944153 
	C287.143250,177.629425 284.274872,179.734833 281.347626,181.754944 
	C272.164307,188.092453 262.944580,194.377335 253.779922,200.741577 
	C252.636780,201.535416 250.750076,202.266983 251.464233,204.098480 
	C252.108505,205.750793 253.991180,205.547302 255.429108,205.417755 
	C263.056091,204.730774 270.685699,204.039291 278.288513,203.132568 
	C281.725739,202.722610 283.027557,203.189438 281.245117,206.895401 
	C276.835297,216.064148 275.359222,215.920670 286.660217,222.378082 
	C289.550659,224.029678 292.325684,225.888336 295.251129,227.471970 
	C298.029510,228.975983 298.814606,230.040161 295.415497,231.955627 
	C289.907349,235.059570 284.776215,238.851654 279.191559,241.794647 
	C274.818451,244.099182 274.077667,246.679718 276.257629,250.960388 
	C279.107819,256.557159 278.929810,256.604095 272.936371,256.184052 
	C258.480804,255.170944 244.016190,254.279312 229.568954,253.161285 
	C226.360229,252.912979 224.547333,254.064911 223.412048,256.915131 
	C221.897430,260.717682 220.262283,264.472168 218.330215,269.078705 
	C213.627426,262.842377 209.438202,257.310333 205.274994,251.758774 
	C202.076843,247.494080 198.790497,243.287903 195.774368,238.897064 
	C193.785492,236.001663 192.424774,235.587921 189.904282,238.562042 
	C182.585663,247.197845 175.029602,255.637421 167.372513,263.975647 
	C166.317154,265.124908 165.414871,269.015076 163.036621,266.363037 
	C161.312302,264.440247 155.582794,263.186035 161.029037,258.056885 
	C178.728851,241.387680 195.448090,223.712982 212.096283,204.895386 
	C212.107025,203.908295 211.896515,203.803329 211.492584,203.993469 
z"/>
</svg>